<?xml version="1.0" standalone="no"?>
<!DOCTYPE svg PUBLIC "-//W3C//DTD SVG 20010904//EN"
 "http://www.w3.org/TR/2001/REC-SVG-20010904/DTD/svg10.dtd">
<svg version="1.0" xmlns="http://www.w3.org/2000/svg"
 width="1920.000000pt" height="1920.000000pt" viewBox="0 0 1920.000000 1920.000000"
 preserveAspectRatio="xMidYMid meet">

<g transform="translate(0.000000,1920.000000) scale(0.100000,-0.100000)"
fill="#000000" stroke="none">
<path d="M11080 9039 c-151 -10 -273 -30 -440 -70 -269 -65 -462 -134 -675
-241 -215 -108 -280 -147 -557 -334 -142 -96 -260 -174 -262 -174 -2 0 -51
-27 -108 -61 -530 -313 -1100 -466 -1604 -430 -222 17 -474 70 -606 130 -24
11 -90 40 -148 66 -113 51 -246 129 -352 206 -37 27 -70 49 -73 49 -15 0 104
-155 186 -243 283 -302 667 -502 1089 -566 41 -7 89 -14 106 -17 25 -3 48 -25
113 -103 438 -530 1098 -817 1866 -810 597 5 1092 165 1510 488 308 238 561
589 687 956 71 204 132 500 107 515 -31 19 -250 35 -479 34 -192 -1 -282 -6
-415 -23 -304 -40 -558 -98 -847 -194 -86 -29 -152 -46 -146 -40 27 34 331
189 523 268 215 89 524 168 785 201 149 18 433 18 590 -1 200 -25 476 -103
655 -185 83 -38 119 -60 270 -159 106 -70 102 -68 81 -35 -65 100 -208 256
-310 338 -84 68 -261 180 -360 226 -351 167 -760 239 -1186 209z"/>
</g>
</svg>
